<?xml version="1.0" standalone="no"?>

<svg version="1.0" xmlns="http://www.w3.org/2000/svg"
 width="256.000000pt" height="256.000000pt" viewBox="0 0 256.000000 256.000000"
 preserveAspectRatio="xMidYMid meet">

<g transform="translate(0.000000,256.000000) scale(0.100000,-0.100000)"
fill="#FFFFFF" stroke="none">
<path d="M29 2441 c-37 -37 -38 -79 -4 -119 l25 -30 0 -272 0 -272 -25 -30
c-32 -38 -32 -84 0 -132 l25 -37 0 -279 c0 -154 -4 -280 -8 -280 -14 0 -42
-58 -42 -88 0 -16 11 -46 25 -66 l25 -37 0 -269 0 -269 -25 -25 c-37 -37 -30
-99 14 -133 12 -10 256 -12 1062 -13 943 0 1048 2 1060 16 9 11 10 20 2 32 -9
15 -38 17 -237 20 l-226 2 0 29 c0 15 -9 36 -20 46 -19 18 -20 29 -18 224 l3
206 89 5 c68 4 91 9 99 22 21 33 -8 47 -101 50 l-87 3 -3 33 c-2 21 4 41 17
58 28 35 28 102 1 137 -19 23 -20 38 -18 149 l3 123 345 5 345 5 0 30 0 30
-345 5 -345 5 -3 113 c-2 100 0 118 18 146 26 44 26 105 -1 140 -14 18 -19 37
-17 63 l3 38 409 3 c397 2 409 2 393 -16 -15 -16 -17 -48 -17 -251 0 -201 2
-237 17 -262 16 -26 16 -29 0 -47 -15 -16 -17 -47 -17 -257 0 -210 2 -241 17
-257 16 -18 16 -21 0 -47 -15 -25 -17 -61 -17 -264 0 -206 2 -236 17 -248 14
-12 5 -15 -72 -19 -92 -5 -116 -18 -102 -54 5 -13 24 -16 116 -16 106 0 110 1
130 26 25 31 27 63 6 90 -21 28 -21 430 0 458 19 25 19 63 0 96 -21 36 -21
434 0 470 19 33 19 71 0 96 -21 28 -21 430 0 458 21 27 19 59 -6 90 l-20 26
-427 2 -427 3 -3 193 c-2 181 -1 195 18 219 20 25 26 75 14 108 -17 44 -31 45
-637 45 -432 0 -576 -3 -585 -12 -18 -18 -14 -46 7 -58 13 -6 215 -10 585 -10
357 0 566 -4 566 -10 0 -5 -9 -14 -20 -20 -19 -10 -20 -21 -20 -334 0 -310 1
-324 20 -341 25 -23 25 -41 0 -62 -19 -17 -20 -30 -20 -344 0 -313 1 -327 20
-344 25 -23 25 -41 0 -62 -19 -17 -20 -30 -20 -340 0 -316 0 -322 21 -337 12
-8 18 -19 14 -25 -10 -17 -1545 -15 -1545 2 0 7 10 17 22 22 l23 10 3 322 2
322 -25 17 c-32 21 -33 57 0 78 l25 16 0 320 0 320 -25 16 c-32 21 -32 51 0
76 l25 19 0 314 0 315 -25 16 c-14 9 -25 20 -25 25 0 5 51 9 114 9 106 0 116
2 130 22 11 15 12 26 5 40 -9 16 -24 18 -140 18 l-131 0 -29 -29z"/>
<path d="M728 1795 c-60 -15 -172 -67 -183 -85 -4 -6 -58 -10 -134 -10 -131 0
-151 -6 -151 -42 0 -27 32 -38 111 -38 l71 0 -16 -22 c-130 -182 -138 -434
-18 -612 18 -26 32 -49 32 -52 0 -2 -35 -4 -78 -4 -81 0 -102 -9 -102 -42 0
-28 41 -38 160 -38 106 0 111 -1 172 -34 101 -55 165 -69 287 -64 111 5 193
30 260 77 26 18 44 21 148 21 131 0 157 9 151 51 -3 23 -6 24 -90 27 l-87 3
37 57 c43 66 78 162 69 186 -4 9 -17 16 -32 16 -21 0 -29 -8 -41 -37 -77 -191
-195 -294 -370 -324 -174 -30 -357 52 -454 203 -53 81 -74 165 -68 276 4 79 9
100 41 164 47 97 118 168 215 215 64 32 85 37 164 41 238 12 414 -120 475
-354 20 -74 41 -97 68 -74 34 28 -4 172 -70 270 l-34 50 73 0 c82 0 110 13
104 51 -3 24 -4 24 -131 27 -122 2 -130 4 -176 32 -113 70 -279 97 -403 65z"/>
<path d="M732 1620 c-45 -15 -65 -27 -71 -43 -10 -27 -8 -34 49 -131 46 -78
47 -80 31 -108 -16 -28 -16 -28 -122 -28 -128 0 -134 -4 -126 -86 8 -74 46
-150 104 -208 48 -47 81 -63 107 -53 8 3 38 46 67 96 49 85 55 90 83 88 27 -2
36 -13 82 -92 46 -80 55 -90 83 -93 27 -3 40 5 90 55 41 41 64 75 79 116 29
77 37 130 23 156 -11 19 -20 21 -121 21 l-109 0 -16 29 c-14 29 -13 32 36 117
27 48 49 97 47 108 -2 14 -20 29 -52 45 -69 34 -178 39 -264 11z m198 -66 c17
-3 30 -8 30 -12 0 -3 -18 -36 -39 -72 -35 -58 -44 -67 -69 -67 -26 0 -34 9
-66 63 -42 74 -43 82 -13 89 64 14 82 14 157 -1z m-39 -245 c22 -22 19 -55 -9
-76 -22 -17 -42 -16 -64 4 -22 20 -23 51 -1 75 21 24 48 23 74 -3z m-151 -97
c15 -26 14 -30 -23 -94 -21 -38 -42 -68 -47 -68 -26 0 -99 123 -100 168 0 21
4 22 78 22 74 0 78 -1 92 -28z m395 1 c-11 -48 -44 -108 -75 -138 -16 -16 -31
-27 -33 -24 -8 9 -77 130 -77 135 0 3 7 16 16 29 15 23 22 25 96 25 l80 0 -7
-27z"/>
<path d="M1944 726 c-3 -8 -4 -23 -2 -33 3 -17 18 -18 208 -18 l205 0 0 30 0
30 -203 3 c-170 2 -203 0 -208 -12z"/>
</g>
</svg>
